<svg width="378" height="190" viewBox="0 0 378 190" fill="none" xmlns="http://www.w3.org/2000/svg">
<path d="M0 56.64V1.14441e-05H2.88V56.64H0ZM11.52 56.64V1.14441e-05H14.4V56.64H11.52ZM17.28 56.64V1.14441e-05H23.04V56.64H17.28ZM8.64 64.992H14.976C17.408 64.992 19.232 65.472 20.448 66.432C21.728 67.392 22.368 68.736 22.368 70.464C22.368 71.552 22.08 72.544 21.504 73.44C20.864 74.336 20.032 74.976 19.008 75.36C20.288 75.808 21.312 76.544 22.08 77.568C22.848 78.656 23.232 79.808 23.232 81.024C23.232 82.944 22.528 84.48 21.12 85.632C19.776 86.72 17.696 87.264 14.88 87.264H8.64V64.992ZM14.592 74.208C18.112 74.208 19.872 73.024 19.872 70.656C19.872 69.632 19.456 68.8 18.624 68.16C17.856 67.456 16.64 67.104 14.976 67.104H11.04V74.208H14.592ZM15.36 85.056C18.816 85.056 20.544 83.648 20.544 80.832C20.544 77.824 18.592 76.32 14.688 76.32H11.04V85.056H15.36ZM31.6875 56.64V1.14441e-05H34.5675V56.64H31.6875ZM40.3275 56.64V1.14441e-05H51.8475V56.64H40.3275ZM57.6075 56.64V1.14441e-05H60.4875V56.64H57.6075ZM46.4715 87.648C44.7435 87.648 43.3675 87.008 42.3435 85.728C41.3195 84.448 40.8395 82.56 40.9035 80.064V70.944H43.3995V80.064C43.3995 81.984 43.7515 83.392 44.4555 84.288C45.0955 85.184 45.9915 85.632 47.1435 85.632C48.3595 85.632 49.3835 85.12 50.2155 84.096C51.1115 83.136 51.5595 81.76 51.5595 79.968V70.944H54.0555V84.768C54.0555 85.344 54.0555 85.792 54.0555 86.112C54.1195 86.496 54.2155 86.88 54.3435 87.264H51.9435C51.7515 86.88 51.6555 86.496 51.6555 86.112C51.5915 85.792 51.5595 85.344 51.5595 84.768C51.0475 85.664 50.3435 86.368 49.4475 86.88C48.5515 87.392 47.5595 87.648 46.4715 87.648ZM63.375 56.64V1.14441e-05H66.255V56.64H63.375ZM72.015 56.64V1.14441e-05H74.895V56.64H72.015ZM80.655 56.64V1.14441e-05H92.175V56.64H80.655ZM82.287 70.56C84.015 70.56 85.455 71.168 86.607 72.384L85.455 74.304L85.359 74.688L85.071 74.496C85.007 74.24 84.943 74.048 84.879 73.92C84.751 73.728 84.527 73.536 84.207 73.344C83.631 72.96 82.927 72.768 82.095 72.768C81.263 72.768 80.463 72.992 79.695 73.44C78.927 73.824 78.319 74.464 77.871 75.36C77.359 76.256 77.103 77.344 77.103 78.624V87.264H74.511V70.944H77.199L77.103 73.92C77.551 72.896 78.255 72.064 79.215 71.424C80.175 70.848 81.199 70.56 82.287 70.56ZM95.0625 56.64V1.14441e-05H97.9425V56.64H95.0625ZM109.463 56.64V1.14441e-05H115.223V56.64H109.463ZM118.103 56.64V1.14441e-05H120.983V56.64H118.103ZM105.527 85.152H109.751V73.056H105.719V70.944H112.247V85.152H116.087V87.264H105.527V85.152ZM110.903 67.488C110.391 67.488 109.943 67.328 109.559 67.008C109.239 66.624 109.079 66.176 109.079 65.664C109.079 65.152 109.239 64.736 109.559 64.416C109.879 64.032 110.327 63.84 110.903 63.84C111.351 63.84 111.767 64.032 112.151 64.416C112.535 64.8 112.727 65.216 112.727 65.664C112.727 66.176 112.535 66.624 112.151 67.008C111.767 67.328 111.351 67.488 110.903 67.488ZM126.75 56.64V1.14441e-05H132.51V56.64H126.75ZM138.27 56.64V1.14441e-05H141.15V56.64H138.27ZM144.03 56.64V1.14441e-05H146.91V56.64H144.03ZM136.446 85.152H141.342V65.568H136.734V63.552H143.934V85.152H148.734V87.264H136.446V85.152ZM158.438 56.64V1.14441e-05H161.318V56.64H158.438ZM169.958 56.64V1.14441e-05H181.478V56.64H169.958ZM184.358 56.64V1.14441e-05H187.238V56.64H184.358ZM174.278 87.552C172.806 87.552 171.494 87.2 170.342 86.496C169.254 85.792 168.39 84.8 167.75 83.52C167.046 82.24 166.694 80.768 166.694 79.104C166.694 77.44 167.046 75.968 167.75 74.688C168.39 73.408 169.254 72.416 170.342 71.712C171.494 70.944 172.806 70.56 174.278 70.56C175.75 70.56 177.03 70.944 178.118 71.712C179.27 72.416 180.166 73.408 180.806 74.688C181.446 75.968 181.766 77.44 181.766 79.104C181.766 80.768 181.446 82.24 180.806 83.52C180.166 84.8 179.27 85.792 178.118 86.496C177.03 87.2 175.75 87.552 174.278 87.552ZM174.278 85.44C175.174 85.44 176.006 85.152 176.774 84.576C177.478 84.064 178.054 83.328 178.502 82.368C178.886 81.344 179.078 80.224 179.078 79.008C179.078 77.152 178.63 75.648 177.734 74.496C176.838 73.344 175.686 72.768 174.278 72.768C172.87 72.768 171.718 73.344 170.822 74.496C169.926 75.648 169.478 77.152 169.478 79.008C169.478 80.224 169.67 81.344 170.054 82.368C170.502 83.328 171.078 84.064 171.782 84.576C172.486 85.152 173.318 85.44 174.278 85.44ZM190.125 56.64V1.14441e-05H193.005V56.64H190.125ZM198.765 56.64V1.14441e-05H204.525V56.64H198.765ZM207.405 56.64V1.14441e-05H210.285V56.64H207.405ZM214.029 72.672C213.773 72.608 213.453 72.576 213.069 72.576C211.917 72.576 210.957 72.832 210.189 73.344C210.637 74.176 210.861 75.072 210.861 76.032C210.861 77.12 210.605 78.08 210.093 78.912C209.645 79.808 208.973 80.512 208.077 81.024C207.245 81.472 206.253 81.696 205.101 81.696C204.205 81.696 203.373 81.536 202.605 81.216C202.157 81.728 201.933 82.24 201.933 82.752C201.933 83.328 202.285 83.744 202.989 84C203.757 84.256 205.069 84.384 206.925 84.384C209.229 84.384 210.797 84.704 211.629 85.344C212.461 86.048 212.877 87.104 212.877 88.512C212.877 89.92 212.333 91.072 211.245 91.968C210.093 92.928 208.301 93.408 205.869 93.408C203.501 93.408 201.677 93.056 200.397 92.352C199.053 91.648 198.381 90.592 198.381 89.184C198.381 88.352 198.637 87.616 199.149 86.976C199.597 86.336 200.205 85.856 200.973 85.536C200.141 85.024 199.725 84.288 199.725 83.328C199.725 82.368 200.205 81.376 201.165 80.352C200.589 79.84 200.141 79.2 199.821 78.432C199.565 77.728 199.437 76.928 199.437 76.032C199.437 75.008 199.661 74.048 200.109 73.152C200.557 72.256 201.229 71.584 202.125 71.136C202.957 70.624 203.949 70.368 205.101 70.368C206.829 70.368 208.237 70.912 209.325 72C209.837 71.488 210.413 71.104 211.053 70.848C211.629 70.592 212.301 70.464 213.069 70.464L213.645 70.56L214.029 72.672ZM205.101 79.584C206.125 79.584 206.989 79.232 207.693 78.528C208.333 77.888 208.653 77.056 208.653 76.032C208.653 75.008 208.333 74.144 207.693 73.44C206.989 72.8 206.125 72.48 205.101 72.48C204.077 72.48 203.213 72.8 202.509 73.44C201.869 74.144 201.549 75.008 201.549 76.032C201.549 77.056 201.869 77.888 202.509 78.528C203.213 79.232 204.077 79.584 205.101 79.584ZM210.573 88.896C210.573 88.32 210.477 87.872 210.285 87.552C210.093 87.232 209.677 86.976 209.037 86.784C208.461 86.656 207.565 86.592 206.349 86.592C204.685 86.592 203.341 86.432 202.317 86.112C201.741 86.496 201.325 86.88 201.069 87.264C200.877 87.712 200.781 88.256 200.781 88.896C200.781 89.728 201.229 90.368 202.125 90.816C203.021 91.264 204.269 91.488 205.869 91.488C207.469 91.488 208.653 91.264 209.421 90.816C210.189 90.304 210.573 89.664 210.573 88.896ZM221.812 56.64V1.14441e-05H224.693V56.64H221.812ZM230.453 56.64V1.14441e-05H236.213V56.64H230.453ZM241.973 56.64V1.14441e-05H250.613V56.64H241.973ZM237.173 87.648C236.661 87.648 236.181 87.456 235.733 87.072C235.349 86.624 235.157 86.144 235.157 85.632C235.157 85.056 235.349 84.576 235.733 84.192C236.181 83.808 236.661 83.616 237.173 83.616C237.749 83.616 238.229 83.808 238.613 84.192C239.061 84.576 239.285 85.056 239.285 85.632C239.285 86.144 239.061 86.624 238.613 87.072C238.229 87.456 237.749 87.648 237.173 87.648ZM253.5 56.64V1.14441e-05H259.26V56.64H253.5ZM267.9 56.64V1.14441e-05H270.78V56.64H267.9ZM273.66 56.64V1.14441e-05H276.54V56.64H273.66ZM262.236 64.992H265.116V65.28C264.988 65.408 264.892 65.568 264.828 65.76C264.828 65.888 264.828 66.176 264.828 66.624V74.496H273.468V64.992H276.444V65.28C276.316 65.408 276.22 65.568 276.156 65.76C276.156 65.888 276.156 66.176 276.156 66.624V87.264H273.468V76.704H264.828V87.264H262.236V64.992ZM285.188 56.64V1.14441e-05H288.068V56.64H285.188ZM293.828 56.64V1.14441e-05H296.708V56.64H293.828ZM299.588 56.64V1.14441e-05H305.348V56.64H299.588ZM300.836 70.56C303.14 70.56 304.9 71.168 306.116 72.384C307.332 73.6 307.94 75.68 307.94 78.624V87.264H305.156V84.768C304.196 86.688 302.34 87.648 299.588 87.648C297.796 87.648 296.388 87.232 295.364 86.4C294.34 85.568 293.828 84.48 293.828 83.136C293.828 81.984 294.212 80.992 294.98 80.16C295.684 79.328 296.676 78.656 297.956 78.144C299.172 77.696 300.548 77.472 302.084 77.472C303.428 77.472 304.644 77.536 305.732 77.664C305.604 75.872 305.124 74.592 304.292 73.824C303.46 73.056 302.244 72.672 300.644 72.672C299.812 72.672 299.044 72.832 298.34 73.152C297.572 73.472 296.868 73.92 296.228 74.496L294.98 72.864C296.516 71.328 298.468 70.56 300.836 70.56ZM299.876 85.728C301.668 85.728 303.076 85.184 304.1 84.096C305.124 83.072 305.668 81.6 305.732 79.68C304.644 79.488 303.492 79.392 302.276 79.392C300.484 79.392 299.044 79.712 297.956 80.352C296.932 80.928 296.42 81.824 296.42 83.04C296.42 84.832 297.572 85.728 299.876 85.728ZM316.875 56.64V1.14441e-05H319.755V56.64H316.875ZM325.515 56.64V1.14441e-05H331.275V56.64H325.515ZM342.795 56.64V1.14441e-05H345.675V56.64H342.795ZM326.379 63.552H329.259V63.744C329.067 63.936 328.971 64.096 328.971 64.224C328.907 64.416 328.875 64.704 328.875 65.088V73.824C329.515 72.864 330.315 72.064 331.275 71.424C332.235 70.848 333.227 70.56 334.251 70.56C335.787 70.56 337.003 71.104 337.899 72.192C338.795 73.28 339.243 75.008 339.243 77.376V87.264H336.747V77.472C336.747 75.808 336.459 74.624 335.883 73.92C335.307 73.152 334.571 72.768 333.675 72.768C332.907 72.768 332.171 72.992 331.467 73.44C330.699 73.824 330.091 74.432 329.643 75.264C329.131 76.032 328.875 76.896 328.875 77.856V87.264H326.379V63.552ZM348.562 56.64V1.14441e-05H351.443V56.64H348.562ZM357.203 56.64V1.14441e-05H362.963V56.64H357.203ZM368.723 56.64V1.14441e-05H377.363V56.64H368.723ZM363.923 87.648C363.411 87.648 362.931 87.456 362.483 87.072C362.099 86.624 361.907 86.144 361.907 85.632C361.907 85.056 362.099 84.576 362.483 84.192C362.931 83.808 363.411 83.616 363.923 83.616C364.499 83.616 364.979 83.808 365.363 84.192C365.811 84.576 366.035 85.056 366.035 85.632C366.035 86.144 365.811 86.624 365.363 87.072C364.979 87.456 364.499 87.648 363.923 87.648ZM47.5312 152.64V96H50.4113V152.64H47.5312ZM53.2913 152.64V96H59.0513V152.64H53.2913ZM67.6913 152.64V96H70.5713V152.64H67.6913ZM56.3633 160.992H61.5473C63.4033 160.992 64.8433 161.248 65.8673 161.76C66.9553 162.272 67.8833 163.04 68.6513 164.064C70.1233 165.984 70.8593 168.704 70.8593 172.224C70.7313 175.872 69.8993 178.624 68.3633 180.48C66.8273 182.4 64.4273 183.328 61.1633 183.264H56.3633V160.992ZM60.9713 181.344C65.8993 181.344 68.3633 178.368 68.3633 172.416C68.3633 169.408 67.8193 167.104 66.7313 165.504C65.5793 163.904 63.7873 163.104 61.3553 163.104H58.7633V181.344H60.9713ZM79.2188 152.64V96H82.0988V152.64H79.2188ZM87.8588 152.64V96H90.7388V152.64H87.8588ZM93.6188 152.64V96H99.3788V152.64H93.6188ZM94.8668 166.56C97.1708 166.56 98.9308 167.168 100.147 168.384C101.363 169.6 101.971 171.68 101.971 174.624V183.264H99.1868V180.768C98.2268 182.688 96.3708 183.648 93.6188 183.648C91.8268 183.648 90.4188 183.232 89.3948 182.4C88.3708 181.568 87.8588 180.48 87.8588 179.136C87.8588 177.984 88.2428 176.992 89.0108 176.16C89.7148 175.328 90.7068 174.656 91.9868 174.144C93.2028 173.696 94.5788 173.472 96.1148 173.472C97.4588 173.472 98.6748 173.536 99.7628 173.664C99.6348 171.872 99.1548 170.592 98.3228 169.824C97.4908 169.056 96.2748 168.672 94.6748 168.672C93.8428 168.672 93.0748 168.832 92.3708 169.152C91.6028 169.472 90.8988 169.92 90.2588 170.496L89.0108 168.864C90.5468 167.328 92.4988 166.56 94.8668 166.56ZM93.9068 181.728C95.6988 181.728 97.1068 181.184 98.1308 180.096C99.1548 179.072 99.6988 177.6 99.7628 175.68C98.6748 175.488 97.5228 175.392 96.3068 175.392C94.5148 175.392 93.0748 175.712 91.9868 176.352C90.9628 176.928 90.4508 177.824 90.4508 179.04C90.4508 180.832 91.6028 181.728 93.9068 181.728ZM110.906 152.64V96H113.786V152.64H110.906ZM125.306 152.64V96H128.186V152.64H125.306ZM133.946 152.64V96H139.706V152.64H133.946ZM126.17 183.648C125.018 183.648 123.93 183.296 122.906 182.592C121.882 181.952 121.05 180.992 120.41 179.712C119.77 178.368 119.45 176.768 119.45 174.912C119.45 173.056 119.77 171.488 120.41 170.208C121.114 168.992 121.978 168.064 123.002 167.424C124.026 166.848 125.114 166.56 126.266 166.56C127.418 166.56 128.378 166.784 129.146 167.232C129.978 167.744 130.618 168.448 131.066 169.344V159.552H133.754V159.744C133.626 159.936 133.53 160.096 133.466 160.224C133.466 160.416 133.466 160.704 133.466 161.088V180.768C133.466 181.344 133.498 181.792 133.562 182.112C133.562 182.496 133.658 182.88 133.85 183.264H131.354C131.162 182.88 131.034 182.496 130.97 182.112C130.97 181.792 130.97 181.344 130.97 180.768C130.458 181.664 129.786 182.368 128.954 182.88C128.122 183.392 127.194 183.648 126.17 183.648ZM126.554 181.344C128.026 181.344 129.114 180.768 129.818 179.616C130.522 178.464 130.874 176.928 130.874 175.008C130.874 173.088 130.49 171.552 129.722 170.4C128.954 169.248 127.834 168.672 126.362 168.672C124.954 168.672 123.866 169.184 123.098 170.208C122.33 171.296 121.946 172.736 121.946 174.528C121.946 176.64 122.33 178.304 123.098 179.52C123.93 180.736 125.082 181.344 126.554 181.344ZM142.594 152.64V96H148.354V152.64H142.594ZM151.234 152.64V96H156.994V152.64H151.234ZM162.754 152.64V96H168.514V152.64H162.754ZM174.281 152.64V96H177.161V152.64H174.281ZM188.681 152.64V96H194.441V152.64H188.681ZM200.201 152.64V96H203.081V152.64H200.201ZM188.105 189.504C187.081 189.504 186.121 189.312 185.225 188.928C184.329 188.544 183.561 187.968 182.921 187.2L184.361 185.28L184.553 184.992L184.745 185.088C184.745 185.152 184.777 185.248 184.841 185.376C184.841 185.568 184.905 185.76 185.033 185.952C185.097 186.08 185.225 186.208 185.417 186.336C186.185 186.976 187.081 187.296 188.105 187.296C189.193 187.296 190.089 186.912 190.793 186.144C191.433 185.376 191.753 184.192 191.753 182.592V169.056H185.705V166.944H194.345V182.496C194.345 184.864 193.769 186.624 192.617 187.776C191.465 188.928 189.961 189.504 188.105 189.504ZM192.905 163.488C192.393 163.488 191.945 163.328 191.561 163.008C191.241 162.624 191.081 162.176 191.081 161.664C191.081 161.152 191.241 160.736 191.561 160.416C191.881 160.032 192.329 159.84 192.905 159.84C193.353 159.84 193.769 160.032 194.153 160.416C194.537 160.8 194.729 161.216 194.729 161.664C194.729 162.176 194.537 162.624 194.153 163.008C193.769 163.328 193.353 163.488 192.905 163.488ZM205.969 152.64V96H208.849V152.64H205.969ZM217.489 152.64V96H229.009V152.64H217.489ZM231.889 152.64V96H234.769V152.64H231.889ZM221.809 183.552C220.337 183.552 219.025 183.2 217.873 182.496C216.785 181.792 215.921 180.8 215.281 179.52C214.577 178.24 214.225 176.768 214.225 175.104C214.225 173.44 214.577 171.968 215.281 170.688C215.921 169.408 216.785 168.416 217.873 167.712C219.025 166.944 220.337 166.56 221.809 166.56C223.281 166.56 224.561 166.944 225.649 167.712C226.801 168.416 227.697 169.408 228.337 170.688C228.977 171.968 229.297 173.44 229.297 175.104C229.297 176.768 228.977 178.24 228.337 179.52C227.697 180.8 226.801 181.792 225.649 182.496C224.561 183.2 223.281 183.552 221.809 183.552ZM221.809 181.44C222.705 181.44 223.537 181.152 224.305 180.576C225.009 180.064 225.585 179.328 226.033 178.368C226.417 177.344 226.609 176.224 226.609 175.008C226.609 173.152 226.161 171.648 225.265 170.496C224.369 169.344 223.217 168.768 221.809 168.768C220.401 168.768 219.249 169.344 218.353 170.496C217.457 171.648 217.009 173.152 217.009 175.008C217.009 176.224 217.201 177.344 217.585 178.368C218.033 179.328 218.609 180.064 219.313 180.576C220.017 181.152 220.849 181.44 221.809 181.44ZM237.656 152.64V96H243.416V152.64H237.656ZM254.936 152.64V96H257.816V152.64H254.936ZM263.576 152.64V96H266.456V152.64H263.576ZM251.672 175.104L249.56 177.12V183.264H246.968V159.552H249.848V159.744C249.72 159.936 249.624 160.096 249.56 160.224C249.56 160.416 249.56 160.704 249.56 161.088V174.432L257.72 166.848C258.296 166.976 258.936 167.04 259.64 167.04H260.504L253.688 173.568L261.656 183.264L258.392 183.36L251.672 175.104ZM269.344 152.64V96H272.224V152.64H269.344ZM275.104 152.64V96H280.864V152.64H275.104ZM286.624 152.64V96H289.504V152.64H286.624ZM285.952 183.648C283.52 183.648 281.6 182.912 280.192 181.44C278.72 179.968 277.984 177.888 277.984 175.2C277.984 173.408 278.336 171.84 279.04 170.496C279.68 169.216 280.576 168.256 281.728 167.616C282.816 166.912 284.064 166.56 285.472 166.56C287.456 166.56 289.056 167.2 290.272 168.48C291.488 169.824 292.096 171.776 292.096 174.336C292.096 174.592 292.096 174.976 292.096 175.488H280.48C280.544 177.472 281.088 178.976 282.112 180C283.136 181.024 284.448 181.536 286.048 181.536C287.776 181.536 289.184 180.928 290.272 179.712L291.712 181.152C290.304 182.816 288.384 183.648 285.952 183.648ZM289.504 173.472C289.504 171.936 289.12 170.72 288.352 169.824C287.584 168.928 286.56 168.48 285.28 168.48C284.128 168.48 283.104 168.896 282.208 169.728C281.312 170.56 280.768 171.808 280.576 173.472H289.504ZM301.031 152.64V96H303.911V152.64H301.031ZM309.671 152.64V96H315.431V152.64H309.671ZM321.191 152.64V96H329.831V152.64H321.191ZM316.391 183.648C315.879 183.648 315.399 183.456 314.951 183.072C314.567 182.624 314.375 182.144 314.375 181.632C314.375 181.056 314.567 180.576 314.951 180.192C315.399 179.808 315.879 179.616 316.391 179.616C316.967 179.616 317.447 179.808 317.831 180.192C318.279 180.576 318.503 181.056 318.503 181.632C318.503 182.144 318.279 182.624 317.831 183.072C317.447 183.456 316.967 183.648 316.391 183.648Z" fill="#AEADAD"/>
</svg>
