<svg width="300" height="509" viewBox="0 0 300 509" fill="none" xmlns="http://www.w3.org/2000/svg">
<g filter="url(#filter0_d_28_155)">
<path d="M4 75.52V1.52588e-05H15.52V75.52H4ZM19.36 75.52V1.52588e-05H23.2V75.52H19.36ZM34.72 75.52V1.52588e-05H42.4V75.52H34.72ZM13.984 86.656H17.056L20.256 106.752L25.12 88.832H26.144L30.88 106.88L33.568 86.656H36.384L31.776 116.352H30.496L25.376 97.024L20.128 116.352H18.72L13.984 86.656ZM46.25 75.52V1.52588e-05H50.09V75.52H46.25ZM53.93 75.52V1.52588e-05H61.61V75.52H53.93ZM69.29 75.52V1.52588e-05H73.13V75.52H69.29ZM68.394 116.864C65.1513 116.864 62.5913 115.883 60.714 113.92C58.7513 111.957 57.77 109.184 57.77 105.6C57.77 103.211 58.2393 101.12 59.178 99.328C60.0313 97.6214 61.226 96.3414 62.762 95.488C64.2127 94.5494 65.8767 94.08 67.754 94.08C70.3993 94.08 72.5327 94.9334 74.154 96.64C75.7753 98.432 76.586 101.035 76.586 104.448C76.586 104.789 76.586 105.301 76.586 105.984H61.098C61.1833 108.629 61.9087 110.635 63.274 112C64.6393 113.365 66.3887 114.048 68.522 114.048C70.826 114.048 72.7033 113.237 74.154 111.616L76.074 113.536C74.1967 115.755 71.6367 116.864 68.394 116.864ZM73.13 103.296C73.13 101.248 72.618 99.6267 71.594 98.432C70.57 97.2374 69.2047 96.64 67.498 96.64C65.962 96.64 64.5967 97.1947 63.402 98.304C62.2073 99.4134 61.482 101.077 61.226 103.296H73.13ZM88.5 75.52V1.52588e-05H96.18V75.52H88.5ZM103.86 75.52V1.52588e-05H107.7V75.52H103.86ZM111.54 75.52V1.52588e-05H115.38V75.52H111.54ZM101.428 113.536H107.956V87.424H101.812V84.736H111.412V113.536H117.812V116.352H101.428V113.536ZM130.75 75.52V1.52588e-05H134.59V75.52H130.75ZM149.95 75.52V1.52588e-05H153.79V75.52H149.95ZM157.63 75.52V1.52588e-05H165.31V75.52H157.63ZM153.534 116.864C151.401 116.864 149.523 116.395 147.902 115.456C146.281 114.432 145.001 113.067 144.062 111.36C143.123 109.653 142.654 107.691 142.654 105.472C142.654 103.339 143.123 101.419 144.062 99.712C145.001 98.0054 146.281 96.64 147.902 95.616C149.523 94.6774 151.401 94.208 153.534 94.208C155.241 94.208 156.819 94.5494 158.27 95.232C159.635 95.9147 160.787 96.896 161.726 98.176L159.55 100.352L159.294 100.608L159.038 100.352C159.038 100.096 158.953 99.84 158.782 99.584C158.697 99.4134 158.483 99.1574 158.142 98.816C157.459 98.2187 156.734 97.792 155.966 97.536C155.113 97.1947 154.174 97.024 153.15 97.024C151.87 97.024 150.718 97.3654 149.694 98.048C148.585 98.7307 147.731 99.712 147.134 100.992C146.451 102.187 146.11 103.595 146.11 105.216C146.11 106.837 146.451 108.331 147.134 109.696C147.817 110.976 148.713 111.957 149.822 112.64C151.017 113.408 152.297 113.792 153.662 113.792C155.881 113.792 157.801 112.896 159.422 111.104L161.342 113.408C159.209 115.712 156.606 116.864 153.534 116.864ZM173 75.52V1.52588e-05H176.84V75.52H173ZM188.36 75.52V1.52588e-05H203.72V75.52H188.36ZM207.56 75.52V1.52588e-05H211.4V75.52H207.56ZM194.12 116.736C192.157 116.736 190.408 116.267 188.872 115.328C187.421 114.389 186.269 113.067 185.416 111.36C184.477 109.653 184.008 107.691 184.008 105.472C184.008 103.253 184.477 101.291 185.416 99.584C186.269 97.8774 187.421 96.5547 188.872 95.616C190.408 94.592 192.157 94.08 194.12 94.08C196.083 94.08 197.789 94.592 199.24 95.616C200.776 96.5547 201.971 97.8774 202.824 99.584C203.677 101.291 204.104 103.253 204.104 105.472C204.104 107.691 203.677 109.653 202.824 111.36C201.971 113.067 200.776 114.389 199.24 115.328C197.789 116.267 196.083 116.736 194.12 116.736ZM194.12 113.92C195.315 113.92 196.424 113.536 197.448 112.768C198.387 112.085 199.155 111.104 199.752 109.824C200.264 108.459 200.52 106.965 200.52 105.344C200.52 102.869 199.923 100.864 198.728 99.328C197.533 97.792 195.997 97.024 194.12 97.024C192.243 97.024 190.707 97.792 189.512 99.328C188.317 100.864 187.72 102.869 187.72 105.344C187.72 106.965 187.976 108.459 188.488 109.824C189.085 111.104 189.853 112.085 190.792 112.768C191.731 113.536 192.84 113.92 194.12 113.92ZM215.25 75.52V1.52588e-05H230.61V75.52H215.25ZM234.45 75.52V1.52588e-05H245.97V75.52H234.45ZM249.81 75.52V1.52588e-05H253.65V75.52H249.81ZM226.258 94.592H229.458V96.768C229.97 96 230.61 95.36 231.378 94.848C232.146 94.336 232.957 94.08 233.81 94.08C234.749 94.08 235.602 94.3787 236.37 94.976C237.053 95.5734 237.479 96.3414 237.65 97.28C238.077 96.3414 238.759 95.5734 239.698 94.976C240.551 94.3787 241.533 94.08 242.642 94.08C244.007 94.08 245.074 94.592 245.842 95.616C246.525 96.64 246.823 98.0054 246.738 99.712V116.352H243.666V100.992C243.666 99.1147 243.495 97.92 243.154 97.408C242.813 96.896 242.301 96.64 241.618 96.64C241.021 96.64 240.466 96.896 239.954 97.408C239.442 97.92 239.015 98.6027 238.674 99.456C238.333 100.309 238.162 101.163 238.162 102.016V116.352H234.962V101.248C234.962 99.456 234.791 98.2614 234.45 97.664C234.109 96.9814 233.469 96.64 232.53 96.64C232.103 96.64 231.634 96.8534 231.122 97.28C230.61 97.7067 230.183 98.3467 229.842 99.2C229.586 99.968 229.458 100.864 229.458 101.888V116.352H226.258V94.592ZM257.5 75.52V1.52588e-05H261.34V75.52H257.5ZM265.18 75.52V1.52588e-05H272.86V75.52H265.18ZM280.54 75.52V1.52588e-05H284.38V75.52H280.54ZM279.644 116.864C276.401 116.864 273.841 115.883 271.964 113.92C270.001 111.957 269.02 109.184 269.02 105.6C269.02 103.211 269.489 101.12 270.428 99.328C271.281 97.6214 272.476 96.3414 274.012 95.488C275.463 94.5494 277.127 94.08 279.004 94.08C281.649 94.08 283.783 94.9334 285.404 96.64C287.025 98.432 287.836 101.035 287.836 104.448C287.836 104.789 287.836 105.301 287.836 105.984H272.348C272.433 108.629 273.159 110.635 274.524 112C275.889 113.365 277.639 114.048 279.772 114.048C282.076 114.048 283.953 113.237 285.404 111.616L287.324 113.536C285.447 115.755 282.887 116.864 279.644 116.864ZM284.38 103.296C284.38 101.248 283.868 99.6267 282.844 98.432C281.82 97.2374 280.455 96.64 278.748 96.64C277.212 96.64 275.847 97.1947 274.652 98.304C273.457 99.4134 272.732 101.077 272.476 103.296H284.38ZM109.625 203.52V128H113.465V203.52H109.625ZM121.145 203.52V128H136.505V203.52H121.145ZM140.345 203.52V128H144.185V203.52H140.345ZM139.961 242.304C137.913 243.925 135.609 244.736 133.049 244.736C130.66 244.736 128.953 244.011 127.929 242.56C126.905 241.024 126.393 238.635 126.393 235.392C126.393 234.795 126.436 233.856 126.521 232.576L127.033 225.408H122.169V222.592H127.161L127.545 216.832L131.257 216.192H131.769V216.448C131.598 216.704 131.47 216.96 131.385 217.216C131.214 217.472 131.129 217.813 131.129 218.24L130.617 222.592H137.785V225.408H130.361L129.977 232.832C129.892 234.112 129.849 234.923 129.849 235.264C129.849 237.824 130.148 239.573 130.745 240.512C131.342 241.365 132.281 241.792 133.561 241.792C134.5 241.792 135.396 241.621 136.249 241.28C137.017 240.939 137.913 240.384 138.937 239.616L139.961 242.304ZM151.875 203.52V128H155.715V203.52H151.875ZM167.235 203.52V128H182.595V203.52H167.235ZM186.435 203.52V128H190.275V203.52H186.435ZM172.995 244.736C171.032 244.736 169.283 244.267 167.747 243.328C166.296 242.389 165.144 241.067 164.291 239.36C163.352 237.653 162.883 235.691 162.883 233.472C162.883 231.253 163.352 229.291 164.291 227.584C165.144 225.877 166.296 224.555 167.747 223.616C169.283 222.592 171.032 222.08 172.995 222.08C174.958 222.08 176.664 222.592 178.115 223.616C179.651 224.555 180.846 225.877 181.699 227.584C182.552 229.291 182.979 231.253 182.979 233.472C182.979 235.691 182.552 237.653 181.699 239.36C180.846 241.067 179.651 242.389 178.115 243.328C176.664 244.267 174.958 244.736 172.995 244.736ZM172.995 241.92C174.19 241.92 175.299 241.536 176.323 240.768C177.262 240.085 178.03 239.104 178.627 237.824C179.139 236.459 179.395 234.965 179.395 233.344C179.395 230.869 178.798 228.864 177.603 227.328C176.408 225.792 174.872 225.024 172.995 225.024C171.118 225.024 169.582 225.792 168.387 227.328C167.192 228.864 166.595 230.869 166.595 233.344C166.595 234.965 166.851 236.459 167.363 237.824C167.96 239.104 168.728 240.085 169.667 240.768C170.606 241.536 171.715 241.92 172.995 241.92ZM46.25 331.52V256H50.09V331.52H46.25ZM53.93 331.52V256H61.61V331.52H53.93ZM73.13 331.52V256H76.97V331.52H73.13ZM58.026 342.656H64.938C67.4127 342.656 69.3327 342.997 70.698 343.68C72.1487 344.363 73.386 345.387 74.41 346.752C76.3727 349.312 77.354 352.939 77.354 357.632C77.1833 362.496 76.074 366.165 74.026 368.64C71.978 371.2 68.778 372.437 64.426 372.352H58.026V342.656ZM64.17 369.792C70.7407 369.792 74.026 365.824 74.026 357.888C74.026 353.877 73.3007 350.805 71.85 348.672C70.314 346.539 67.9247 345.472 64.682 345.472H61.226V369.792H64.17ZM88.5 331.52V256H92.34V331.52H88.5ZM96.18 331.52V256H103.86V331.52H96.18ZM111.54 331.52V256H115.38V331.52H111.54ZM110.644 372.864C107.401 372.864 104.841 371.883 102.964 369.92C101.001 367.957 100.02 365.184 100.02 361.6C100.02 359.211 100.489 357.12 101.428 355.328C102.281 353.621 103.476 352.341 105.012 351.488C106.463 350.549 108.127 350.08 110.004 350.08C112.649 350.08 114.783 350.933 116.404 352.64C118.025 354.432 118.836 357.035 118.836 360.448C118.836 360.789 118.836 361.301 118.836 361.984H103.348C103.433 364.629 104.159 366.635 105.524 368C106.889 369.365 108.639 370.048 110.772 370.048C113.076 370.048 114.953 369.237 116.404 367.616L118.324 369.536C116.447 371.755 113.887 372.864 110.644 372.864ZM115.38 359.296C115.38 357.248 114.868 355.627 113.844 354.432C112.82 353.237 111.455 352.64 109.748 352.64C108.212 352.64 106.847 353.195 105.652 354.304C104.457 355.413 103.732 357.077 103.476 359.296H115.38ZM130.75 331.52V256H134.59V331.52H130.75ZM138.43 331.52V256H146.11V331.52H138.43ZM153.79 331.52V256H157.63V331.52H153.79ZM152.894 372.864C149.651 372.864 147.091 371.883 145.214 369.92C143.251 367.957 142.27 365.184 142.27 361.6C142.27 359.211 142.739 357.12 143.678 355.328C144.531 353.621 145.726 352.341 147.262 351.488C148.713 350.549 150.377 350.08 152.254 350.08C154.899 350.08 157.033 350.933 158.654 352.64C160.275 354.432 161.086 357.035 161.086 360.448C161.086 360.789 161.086 361.301 161.086 361.984H145.598C145.683 364.629 146.409 366.635 147.774 368C149.139 369.365 150.889 370.048 153.022 370.048C155.326 370.048 157.203 369.237 158.654 367.616L160.574 369.536C158.697 371.755 156.137 372.864 152.894 372.864ZM157.63 359.296C157.63 357.248 157.118 355.627 156.094 354.432C155.07 353.237 153.705 352.64 151.998 352.64C150.462 352.64 149.097 353.195 147.902 354.304C146.707 355.413 145.982 357.077 145.726 359.296H157.63ZM173 331.52V256H176.84V331.52H173ZM192.2 331.52V256H196.04V331.52H192.2ZM203.72 331.52V256H211.4V331.52H203.72ZM193.352 372.864C191.816 372.864 190.365 372.395 189 371.456C187.635 370.603 186.525 369.323 185.672 367.616C184.819 365.824 184.392 363.691 184.392 361.216C184.392 358.741 184.819 356.651 185.672 354.944C186.611 353.323 187.763 352.085 189.128 351.232C190.493 350.464 191.944 350.08 193.48 350.08C195.016 350.08 196.296 350.379 197.32 350.976C198.429 351.659 199.283 352.597 199.88 353.792V340.736H203.464V340.992C203.293 341.248 203.165 341.461 203.08 341.632C203.08 341.888 203.08 342.272 203.08 342.784V369.024C203.08 369.792 203.123 370.389 203.208 370.816C203.208 371.328 203.336 371.84 203.592 372.352H200.264C200.008 371.84 199.837 371.328 199.752 370.816C199.752 370.389 199.752 369.792 199.752 369.024C199.069 370.219 198.173 371.157 197.064 371.84C195.955 372.523 194.717 372.864 193.352 372.864ZM193.864 369.792C195.827 369.792 197.277 369.024 198.216 367.488C199.155 365.952 199.624 363.904 199.624 361.344C199.624 358.784 199.112 356.736 198.088 355.2C197.064 353.664 195.571 352.896 193.608 352.896C191.731 352.896 190.28 353.579 189.256 354.944C188.232 356.395 187.72 358.315 187.72 360.704C187.72 363.52 188.232 365.739 189.256 367.36C190.365 368.981 191.901 369.792 193.864 369.792ZM215.25 331.52V256H219.09V331.52H215.25ZM222.93 331.52V256H238.29V331.52H222.93ZM245.97 331.52V256H249.81V331.52H245.97ZM236.37 372.864C232.701 372.864 229.629 371.712 227.154 369.408L229.074 366.208L229.33 365.696L229.714 365.952C229.714 366.037 229.714 366.165 229.714 366.336C229.799 366.592 229.885 366.805 229.97 366.976C230.141 367.232 230.311 367.488 230.482 367.744C231.25 368.427 232.103 368.981 233.042 369.408C233.981 369.749 235.133 369.92 236.498 369.92C238.205 369.92 239.57 369.621 240.594 369.024C241.533 368.427 242.002 367.573 242.002 366.464C242.002 365.525 241.618 364.757 240.85 364.16C240.082 363.563 238.631 362.965 236.498 362.368C231.037 360.747 228.306 358.485 228.306 355.584C228.306 353.877 229.031 352.555 230.482 351.616C231.847 350.592 233.81 350.08 236.37 350.08C238.333 350.08 239.997 350.379 241.362 350.976C242.727 351.488 243.965 352.341 245.074 353.536L243.026 355.84L242.77 356.224L242.514 355.968C242.514 355.627 242.429 355.371 242.258 355.2C242.173 354.944 241.959 354.688 241.618 354.432C240.85 353.835 240.039 353.408 239.186 353.152C238.247 352.811 237.351 352.64 236.498 352.64C235.133 352.64 233.981 352.896 233.042 353.408C232.189 353.835 231.762 354.475 231.762 355.328C231.762 356.181 232.231 356.907 233.17 357.504C234.023 358.187 235.602 358.869 237.906 359.552C240.637 360.405 242.557 361.301 243.666 362.24C244.861 363.179 245.458 364.459 245.458 366.08C245.458 368.043 244.69 369.664 243.154 370.944C241.618 372.224 239.357 372.864 236.37 372.864ZM4 459.52V384H7.84V459.52H4ZM19.36 459.52V384H23.2V459.52H19.36ZM27.04 459.52V384H34.72V459.52H27.04ZM15.52 470.656H23.968C27.2107 470.656 29.6427 471.296 31.264 472.576C32.9707 473.856 33.824 475.648 33.824 477.952C33.824 479.403 33.44 480.725 32.672 481.92C31.8187 483.115 30.7093 483.968 29.344 484.48C31.0507 485.077 32.416 486.059 33.44 487.424C34.464 488.875 34.976 490.411 34.976 492.032C34.976 494.592 34.0373 496.64 32.16 498.176C30.368 499.627 27.5947 500.352 23.84 500.352H15.52V470.656ZM23.456 482.944C28.1493 482.944 30.496 481.365 30.496 478.208C30.496 476.843 29.9413 475.733 28.832 474.88C27.808 473.941 26.1867 473.472 23.968 473.472H18.72V482.944H23.456ZM24.48 497.408C29.088 497.408 31.392 495.531 31.392 491.776C31.392 487.765 28.7893 485.76 23.584 485.76H18.72V497.408H24.48ZM46.25 459.52V384H50.09V459.52H46.25ZM57.77 459.52V384H73.13V459.52H57.77ZM80.81 459.52V384H84.65V459.52H80.81ZM65.962 500.864C63.658 500.864 61.8233 500.011 60.458 498.304C59.0927 496.597 58.4527 494.08 58.538 490.752V478.592H61.866V490.752C61.866 493.312 62.3353 495.189 63.274 496.384C64.1273 497.579 65.322 498.176 66.858 498.176C68.4793 498.176 69.8447 497.493 70.954 496.128C72.1487 494.848 72.746 493.013 72.746 490.624V478.592H76.074V497.024C76.074 497.792 76.074 498.389 76.074 498.816C76.1593 499.328 76.2873 499.84 76.458 500.352H73.258C73.002 499.84 72.874 499.328 72.874 498.816C72.7887 498.389 72.746 497.792 72.746 497.024C72.0633 498.219 71.1247 499.157 69.93 499.84C68.7353 500.523 67.4127 500.864 65.962 500.864ZM88.5 459.52V384H92.34V459.52H88.5ZM100.02 459.52V384H103.86V459.52H100.02ZM111.54 459.52V384H126.9V459.52H111.54ZM113.716 478.08C116.02 478.08 117.94 478.891 119.476 480.512L117.94 483.072L117.812 483.584L117.428 483.328C117.343 482.987 117.257 482.731 117.172 482.56C117.001 482.304 116.703 482.048 116.276 481.792C115.508 481.28 114.569 481.024 113.46 481.024C112.351 481.024 111.284 481.323 110.26 481.92C109.236 482.432 108.425 483.285 107.828 484.48C107.145 485.675 106.804 487.125 106.804 488.832V500.352H103.348V478.592H106.932L106.804 482.56C107.401 481.195 108.34 480.085 109.62 479.232C110.9 478.464 112.265 478.08 113.716 478.08ZM130.75 459.52V384H134.59V459.52H130.75ZM149.95 459.52V384H157.63V459.52H149.95ZM161.47 459.52V384H165.31V459.52H161.47ZM144.702 497.536H150.334V481.408H144.958V478.592H153.662V497.536H158.782V500.352H144.702V497.536ZM151.87 473.984C151.187 473.984 150.59 473.771 150.078 473.344C149.651 472.832 149.438 472.235 149.438 471.552C149.438 470.869 149.651 470.315 150.078 469.888C150.505 469.376 151.102 469.12 151.87 469.12C152.467 469.12 153.022 469.376 153.534 469.888C154.046 470.4 154.302 470.955 154.302 471.552C154.302 472.235 154.046 472.832 153.534 473.344C153.022 473.771 152.467 473.984 151.87 473.984ZM173 459.52V384H176.84V459.52H173ZM184.52 459.52V384H188.36V459.52H184.52ZM192.2 459.52V384H199.88V459.52H192.2ZM193.864 478.08C196.936 478.08 199.283 478.891 200.904 480.512C202.525 482.133 203.336 484.907 203.336 488.832V500.352H199.624V497.024C198.344 499.584 195.869 500.864 192.2 500.864C189.811 500.864 187.933 500.309 186.568 499.2C185.203 498.091 184.52 496.64 184.52 494.848C184.52 493.312 185.032 491.989 186.056 490.88C186.995 489.771 188.317 488.875 190.024 488.192C191.645 487.595 193.48 487.296 195.528 487.296C197.32 487.296 198.941 487.381 200.392 487.552C200.221 485.163 199.581 483.456 198.472 482.432C197.363 481.408 195.741 480.896 193.608 480.896C192.499 480.896 191.475 481.109 190.536 481.536C189.512 481.963 188.573 482.56 187.72 483.328L186.056 481.152C188.104 479.104 190.707 478.08 193.864 478.08ZM192.584 498.304C194.973 498.304 196.851 497.579 198.216 496.128C199.581 494.763 200.307 492.8 200.392 490.24C198.941 489.984 197.405 489.856 195.784 489.856C193.395 489.856 191.475 490.283 190.024 491.136C188.659 491.904 187.976 493.099 187.976 494.72C187.976 497.109 189.512 498.304 192.584 498.304ZM215.25 459.52V384H222.93V459.52H215.25ZM230.61 459.52V384H234.45V459.52H230.61ZM238.29 459.52V384H242.13V459.52H238.29ZM228.178 497.536H234.706V471.424H228.562V468.736H238.162V497.536H244.562V500.352H228.178V497.536ZM257.5 459.52V384H261.34V459.52H257.5ZM269.02 459.52V384H276.7V459.52H269.02ZM284.38 459.52V384H295.9V459.52H284.38ZM277.98 500.864C277.297 500.864 276.657 500.608 276.06 500.096C275.548 499.499 275.292 498.859 275.292 498.176C275.292 497.408 275.548 496.768 276.06 496.256C276.657 495.744 277.297 495.488 277.98 495.488C278.748 495.488 279.388 495.744 279.9 496.256C280.497 496.768 280.796 497.408 280.796 498.176C280.796 498.859 280.497 499.499 279.9 500.096C279.388 500.608 278.748 500.864 277.98 500.864Z" fill="#AEADAD"/>
</g>
<defs>
<filter id="filter0_d_28_155" x="0" y="0" width="299.9" height="508.864" filterUnits="userSpaceOnUse" color-interpolation-filters="sRGB">
<feFlood flood-opacity="0" result="BackgroundImageFix"/>
<feColorMatrix in="SourceAlpha" type="matrix" values="0 0 0 0 0 0 0 0 0 0 0 0 0 0 0 0 0 0 127 0" result="hardAlpha"/>
<feOffset dy="4"/>
<feGaussianBlur stdDeviation="2"/>
<feComposite in2="hardAlpha" operator="out"/>
<feColorMatrix type="matrix" values="0 0 0 0 0 0 0 0 0 0 0 0 0 0 0 0 0 0 0.25 0"/>
<feBlend mode="normal" in2="BackgroundImageFix" result="effect1_dropShadow_28_155"/>
<feBlend mode="normal" in="SourceGraphic" in2="effect1_dropShadow_28_155" result="shape"/>
</filter>
</defs>
</svg>
